# FreeCAD v0.19 build24276 (Git) Arch module
# http://www.freecadweb.org
mtllib plexiglaseinsatz.mtl
o Body001
usemtl color_626262
v 222.0 -15.0 24.0
v 222.0 15.0 24.0
v 222.0 15.0 25.0
v 222.0 -15.0 25.0
v 221.309021 -15.951056 24.0
v 221.809021 -15.587786 24.0
v 221.587784 -15.809017 24.0
v 221.95105 -15.309017 24.0
v 221.0 -16.0 24.0
v 221.809021 15.587786 24.0
v 221.95105 15.309017 24.0
v 221.0 16.0 24.0
v 221.587784 15.809017 24.0
v 221.309021 15.951056 24.0
v 0.0 -16.0 24.0
v -13.856406 -8.0 24.0
v -5.472322 -15.035082 24.0
v -10.284602 -12.256711 24.0
v 0.0 16.0 24.0
v -5.472322 15.035082 24.0
v -13.856406 8.0 24.0
v -15.756924 -2.778371 24.0
v -15.756924 2.778371 24.0
v -10.284602 12.256711 24.0
v 221.95105 15.309017 25.0
v 221.809021 15.587786 25.0
v 221.587784 15.809017 25.0
v 221.309021 15.951056 25.0
v 221.0 16.0 25.0
v 221.95105 -15.309017 25.0
v 221.809021 -15.587786 25.0
v 221.587784 -15.809017 25.0
v 221.309021 -15.951056 25.0
v 221.0 -16.0 25.0
v 220.0 -14.0 25.0
v 220.0 14.0 25.0
v 0.0 -16.0 25.0
v 0.0 -14.0 25.0
v -5.472322 -15.035082 25.0
v -4.788282 -13.155697 25.0
v -10.284602 -12.256711 25.0
v -8.999026 -10.724622 25.0
v -12.124355 -7.0 25.0
v -13.856406 -8.0 25.0
v -13.787309 -2.431074 25.0
v -15.756924 -2.778371 25.0
v 0.0 16.0 25.0
v -0.0 14.0 25.0
v -13.787309 2.431074 25.0
v -15.756924 2.778371 25.0
v -5.472322 15.035082 25.0
v -4.788282 13.155697 25.0
v -12.124355 7.0 25.0
v -13.856406 8.0 25.0
v -10.284602 12.256711 25.0
v -8.999026 10.724622 25.0
v -0.0 14.0 28.0
v 220.0 14.0 28.0
v 220.0 -14.0 28.0
v 0.0 -14.0 28.0
v -4.788282 13.155697 28.0
v -8.999026 10.724622 28.0
v -12.124355 7.0 28.0
v -13.787309 2.431074 28.0
v -13.787309 -2.431074 28.0
v -12.124355 -7.0 28.0
v -8.999026 -10.724622 28.0
v -4.788282 -13.155697 28.0
vn 1.0 0.0 0.0
vn 1.0 0.0 0.0
vn 0.0 0.0 -1.0
vn 0.0 0.0 -1.0
vn 0.0 0.0 -1.0
vn 0.0 0.0 -1.0
vn 0.0 0.0 -1.0
vn 0.0 0.0 -1.0
vn 0.0 0.0 -1.0
vn 0.0 0.0 -1.0
vn 0.0 0.0 -1.0
vn 0.0 0.0 -1.0
vn 0.0 0.0 -1.0
vn 0.0 0.0 -1.0
vn 0.0 0.0 -1.0
vn 0.0 0.0 -1.0
vn 0.0 0.0 -1.0
vn 0.0 0.0 -1.0
vn 0.0 0.0 -1.0
vn 0.0 -0.0 -1.0
vn 0.0 0.0 -1.0
vn 0.0 0.0 -1.0
vn 0.9876850247383118 0.15645529329776764 0.0
vn 0.9876850247383118 0.15645529329776764 0.0
vn 0.8910205960273743 0.4539629817008972 0.0
vn 0.8910205960273743 0.4539629817008972 0.0
vn 0.707097589969635 0.707115888595581 0.0
vn 0.707097589969635 0.707115888595581 0.0
vn 0.4539969861507416 0.8910032510757446 0.0
vn 0.4539969861507416 0.8910032510757446 0.0
vn 0.1564325988292694 0.9876886606216431 0.0
vn 0.1564325988292694 0.9876886606216431 0.0
vn 0.9876850247383118 -0.15645529329776764 0.0
vn 0.9876850247383118 -0.15645529329776764 0.0
vn 0.8910205960273743 -0.4539629817008972 0.0
vn 0.8910205960273743 -0.4539629817008972 0.0
vn 0.707097589969635 -0.707115888595581 0.0
vn 0.707097589969635 -0.707115888595581 0.0
vn 0.4539969861507416 -0.8910032510757446 0.0
vn 0.4539969861507416 -0.8910032510757446 0.0
vn 0.1564325988292694 -0.9876886606216431 0.0
vn 0.1564325988292694 -0.9876886606216431 0.0
vn 0.0 0.0 1.0
vn 0.0 -0.0 1.0
vn 0.0 0.0 1.0
vn 0.0 0.0 1.0
vn 0.0 0.0 1.0
vn 0.0 0.0 1.0
vn 0.0 0.0 1.0
vn 0.0 0.0 1.0
vn 0.0 0.0 1.0
vn 0.0 0.0 1.0
vn 0.0 0.0 1.0
vn 0.0 0.0 1.0
vn 0.0 0.0 1.0
vn 0.0 0.0 1.0
vn 0.0 0.0 1.0
vn 0.0 0.0 1.0
vn 0.0 0.0 1.0
vn 0.0 0.0 1.0
vn 0.0 0.0 1.0
vn 0.0 0.0 1.0
vn 0.0 0.0 1.0
vn 0.0 0.0 1.0
vn 0.0 0.0 1.0
vn 0.0 0.0 1.0
vn 0.0 0.0 1.0
vn 0.0 0.0 1.0
vn 0.0 0.0 1.0
vn 0.0 0.0 1.0
vn 0.0 0.0 1.0
vn 0.0 0.0 1.0
vn 0.0 -0.0 1.0
vn 0.0 0.0 1.0
vn 0.0 0.0 1.0
vn 0.0 0.0 1.0
vn 0.0 1.0 0.0
vn 0.0 1.0 -0.0
vn 0.0 -1.0 0.0
vn 0.0 -1.0 0.0
vn -0.1736481934785843 0.9848077893257141 0.0
vn -0.1736481934785843 0.9848077893257141 0.0
vn -0.5 0.866025447845459 0.0
vn -0.5 0.866025447845459 0.0
vn -0.7660444974899292 0.642787516117096 0.0
vn -0.7660444974899292 0.642787516117096 0.0
vn -0.9396926164627075 0.3420201241970062 0.0
vn -0.9396926164627075 0.3420201241970062 0.0
vn -1.0 -0.0 0.0
vn -1.0 0.0 0.0
vn -0.9396926164627075 -0.3420201241970062 0.0
vn -0.9396926164627075 -0.3420201241970062 0.0
vn -0.7660444974899292 -0.642787516117096 0.0
vn -0.7660444974899292 -0.642787516117096 0.0
vn -0.5 -0.866025447845459 0.0
vn -0.1736481934785843 -0.9848077893257141 -0.0
vn -0.5 -0.866025447845459 0.0
vn -0.1736481934785843 -0.9848077893257141 0.0
vn 0.0 1.0 0.0
vn 0.0 1.0 -0.0
vn 1.0 0.0 0.0
vn 1.0 0.0 0.0
vn 0.0 -1.0 0.0
vn 0.0 -1.0 0.0
vn -0.1736481487751007 0.9848077297210693 0.0
vn -0.1736481487751007 0.9848077297210693 0.0
vn -0.5000001192092896 0.8660253286361694 0.0
vn -0.7660444378852844 0.6427876353263855 0.0
vn -0.5000001192092896 0.8660253286361694 0.0
vn -0.7660444378852844 0.6427876353263855 0.0
vn -0.9396926164627075 0.3420202136039734 0.0
vn -1.0 -0.0 -0.0
vn -0.9396926164627075 0.3420202136039734 0.0
vn -0.9396926164627075 -0.3420202136039734 -0.0
vn -1.0 0.0 0.0
vn -0.9396926164627075 -0.3420202136039734 0.0
vn -0.7660444378852844 -0.6427876353263855 0.0
vn -0.7660444378852844 -0.6427876353263855 0.0
vn -0.5000001192092896 -0.8660253286361694 0.0
vn -0.1736481487751007 -0.9848077297210693 -0.0
vn -0.5000001192092896 -0.8660253286361694 0.0
vn -0.1736481487751007 -0.9848077297210693 0.0
vn 0.0 0.0 1.0
vn 0.0 0.0 1.0
vn 0.0 0.0 1.0
vn 0.0 0.0 1.0
vn 0.0 0.0 1.0
vn -0.0 0.0 1.0
vn 0.0 0.0 1.0
vn 0.0 0.0 1.0
vn 0.0 0.0 1.0
vn 0.0 0.0 1.0
f 1//1 2//1 3//1 
f 1//2 3//2 4//2 
f 5//3 6//3 7//3 
f 1//4 8//4 6//4 
f 9//5 6//5 5//5 
f 9//6 1//6 6//6 
f 10//7 11//7 2//7 
f 12//8 2//8 1//8 
f 12//9 13//9 10//9 
f 12//10 14//10 13//10 
f 12//11 1//11 9//11 
f 12//12 10//12 2//12 
f 15//13 12//13 9//13 
f 16//14 17//14 18//14 
f 19//15 12//15 15//15 
f 20//16 15//16 17//16 
f 20//17 19//17 15//17 
f 21//18 22//18 23//18 
f 24//19 16//19 22//19 
f 24//20 17//20 16//20 
f 24//21 20//21 17//21 
f 24//22 22//22 21//22 
f 25//23 2//23 11//23 
f 25//24 3//24 2//24 
f 26//25 11//25 10//25 
f 26//26 25//26 11//26 
f 27//27 10//27 13//27 
f 27//28 26//28 10//28 
f 28//29 13//29 14//29 
f 28//30 27//30 13//30 
f 29//31 14//31 12//31 
f 29//32 28//32 14//32 
f 1//33 30//33 8//33 
f 4//34 30//34 1//34 
f 8//35 31//35 6//35 
f 30//36 31//36 8//36 
f 6//37 32//37 7//37 
f 31//38 32//38 6//38 
f 7//39 33//39 5//39 
f 32//40 33//40 7//40 
f 5//41 34//41 9//41 
f 33//42 34//42 5//42 
f 31//43 33//43 32//43 
f 30//44 4//44 31//44 
f 31//45 34//45 33//45 
f 4//46 34//46 31//46 
f 4//47 35//47 34//47 
f 25//48 26//48 3//48 
f 3//49 36//49 4//49 
f 4//50 36//50 35//50 
f 27//51 29//51 26//51 
f 28//52 29//52 27//52 
f 26//53 29//53 3//53 
f 3//54 29//54 36//54 
f 35//55 37//55 34//55 
f 35//56 38//56 37//56 
f 38//57 39//57 37//57 
f 38//58 40//58 39//58 
f 40//59 41//59 39//59 
f 40//60 42//60 41//60 
f 43//61 44//61 42//61 
f 42//62 44//62 41//62 
f 45//63 46//63 43//63 
f 43//64 46//64 44//64 
f 36//65 47//65 48//65 
f 29//66 47//66 36//66 
f 49//67 50//67 45//67 
f 45//68 50//68 46//68 
f 48//69 51//69 52//69 
f 47//70 51//70 48//70 
f 53//71 54//71 49//71 
f 49//72 54//72 50//72 
f 53//73 55//73 54//73 
f 52//74 55//74 56//74 
f 56//75 55//75 53//75 
f 51//76 55//76 52//76 
f 12//77 19//77 47//77 
f 12//78 47//78 29//78 
f 15//79 9//79 34//79 
f 15//80 34//80 37//80 
f 19//81 20//81 47//81 
f 47//82 20//82 51//82 
f 51//83 24//83 55//83 
f 20//84 24//84 51//84 
f 55//85 21//85 54//85 
f 24//86 21//86 55//86 
f 54//87 23//87 50//87 
f 21//88 23//88 54//88 
f 50//89 22//89 46//89 
f 23//90 22//90 50//90 
f 46//91 16//91 44//91 
f 22//92 16//92 46//92 
f 44//93 18//93 41//93 
f 16//94 18//94 44//94 
f 41//95 17//95 39//95 
f 39//96 17//96 37//96 
f 18//97 17//97 41//97 
f 17//98 15//98 37//98 
f 36//99 48//99 57//99 
f 36//100 57//100 58//100 
f 35//101 36//101 58//101 
f 35//102 58//102 59//102 
f 38//103 35//103 59//103 
f 38//104 59//104 60//104 
f 48//105 52//105 57//105 
f 57//106 52//106 61//106 
f 61//107 56//107 62//107 
f 62//108 56//108 63//108 
f 52//109 56//109 61//109 
f 56//110 53//110 63//110 
f 63//111 49//111 64//111 
f 64//112 49//112 65//112 
f 53//113 49//113 63//113 
f 65//114 45//114 66//114 
f 49//115 45//115 65//115 
f 45//116 43//116 66//116 
f 66//117 42//117 67//117 
f 43//118 42//118 66//118 
f 67//119 40//119 68//119 
f 68//120 40//120 60//120 
f 42//121 40//121 67//121 
f 40//122 38//122 60//122 
f 67//123 65//123 66//123 
f 68//124 65//124 67//124 
f 60//125 65//125 68//125 
f 58//126 57//126 59//126 
f 59//127 57//127 60//127 
f 61//128 62//128 57//128 
f 64//129 62//129 63//129 
f 65//130 62//130 64//130 
f 57//131 62//131 60//131 
f 60//132 62//132 65//132 
